<svg width="440" height="956" viewBox="0 0 440 956" fill="none" xmlns="http://www.w3.org/2000/svg">
<mask id="mask0_7005_1971" style="mask-type:alpha" maskUnits="userSpaceOnUse" x="0" y="0" width="440" height="956">
<rect width="440" height="956" fill="#D9D9D9"/>
</mask>
<g mask="url(#mask0_7005_1971)">
<g clip-path="url(#clip0_7005_1971)">
<g opacity="0.06">
<path d="M371.668 138.131C425.789 138.131 469.542 181.521 469.542 234.893C469.542 288.265 425.789 331.654 371.668 331.654C317.547 331.654 273.795 288.265 273.795 234.893C273.795 181.521 317.547 138.132 371.668 138.131Z" stroke="#1A1F36" stroke-width="13.3463"/>
<path d="M371.668 185.4C399.667 185.4 422.273 207.842 422.273 235.414C422.273 262.985 399.667 285.426 371.668 285.426C343.669 285.426 321.064 262.985 321.063 235.414C321.063 207.842 343.669 185.4 371.668 185.4Z" stroke="#1A1F36" stroke-width="10.0098"/>
<rect x="357.21" y="131.458" width="14.4585" height="28.9171" rx="7.22927" transform="rotate(-90 357.21 131.458)" fill="#1A1F36"/>
<rect x="270.458" y="249.352" width="14.4585" height="28.9171" rx="7.22927" transform="rotate(-180 270.458 249.352)" fill="#1A1F36"/>
<rect x="282.399" y="179.38" width="14.4585" height="28.9171" rx="7.22927" transform="rotate(-138.5 282.399 179.38)" fill="#1A1F36"/>
<rect x="270.458" y="249.352" width="14.4585" height="28.9171" rx="7.22927" transform="rotate(-180 270.458 249.352)" fill="#1A1F36"/>
<rect x="301.428" y="312.707" width="14.4585" height="28.9171" rx="7.22927" transform="rotate(141.042 301.428 312.707)" fill="#1A1F36"/>
<rect x="381.678" y="347.225" width="14.4585" height="28.9171" rx="7.22927" transform="rotate(-180 381.678 347.225)" fill="#1A1F36"/>
</g>
<g opacity="0.04">
<path d="M38.927 574.739C71.3608 550.131 117.309 556.24 141.576 588.225C165.844 620.21 159.352 666.105 126.918 690.713C94.4843 715.321 48.5365 709.213 24.2689 677.228C0.00160368 645.243 6.49332 599.347 38.927 574.739Z" stroke="#1A1F36" stroke-width="10.0397"/>
<path d="M60.4191 603.066C77.1983 590.336 100.95 593.507 113.486 610.03C126.022 626.553 122.679 650.28 105.9 663.011C89.1207 675.741 65.3694 672.571 52.8331 656.048C40.297 639.525 43.64 615.797 60.4191 603.066Z" stroke="#1A1F36" stroke-width="7.52981"/>
<rect x="132.912" y="594.799" width="10.8764" height="21.7528" rx="5.4382" transform="rotate(-127.188 132.912 594.799)" fill="#1A1F36"/>
<rect x="27.2283" y="577.314" width="10.8764" height="21.7528" rx="5.4382" transform="rotate(-127.188 27.2283 577.314)" fill="#1A1F36"/>
<rect x="28.844" y="687.41" width="10.8764" height="21.7528" rx="5.4382" transform="rotate(142.812 28.844 687.41)" fill="#1A1F36"/>
<rect x="132.912" y="594.799" width="10.8764" height="21.7528" rx="5.4382" transform="rotate(-127.188 132.912 594.799)" fill="#1A1F36"/>
<rect x="89.5081" y="555.587" width="10.8764" height="21.7528" rx="5.4382" transform="rotate(-76.8931 89.5081 555.587)" fill="#1A1F36"/>
<rect x="4.18506" y="640.047" width="10.8764" height="21.7528" rx="5.4382" transform="rotate(-175.688 4.18506 640.047)" fill="#1A1F36"/>
<rect x="28.844" y="687.41" width="10.8764" height="21.7528" rx="5.4382" transform="rotate(142.812 28.844 687.41)" fill="#1A1F36"/>
<rect x="76.2102" y="711.296" width="10.8764" height="21.7528" rx="5.4382" transform="rotate(103.854 76.2102 711.296)" fill="#1A1F36"/>
<rect x="160.944" y="626.041" width="10.8764" height="21.7528" rx="5.4382" transform="rotate(3.9984 160.944 626.041)" fill="#1A1F36"/>
<rect x="139.997" y="695.494" width="10.8764" height="21.7528" rx="5.4382" transform="rotate(142.812 139.997 695.494)" fill="#1A1F36"/>
</g>
<g opacity="0.03">
<path d="M-39.8238 209.522C-19.2046 193.878 10.0056 197.761 25.4334 218.095C40.8611 238.429 36.7346 267.606 16.1153 283.25C-4.50407 298.895 -33.7148 295.011 -49.1426 274.677C-64.5701 254.343 -60.4431 225.166 -39.8238 209.522Z" stroke="#1A1F36" stroke-width="6.3826"/>
<path d="M-26.1609 227.53C-15.4938 219.437 -0.393769 221.452 7.57591 231.956C15.5454 242.46 13.4198 257.545 2.75277 265.639C-7.91426 273.732 -23.0136 271.716 -30.9833 261.212C-38.9529 250.708 -36.8277 235.623 -26.1609 227.53Z" stroke="#1A1F36" stroke-width="4.78695"/>
<rect x="19.9253" y="222.274" width="6.91449" height="13.829" rx="3.45724" transform="rotate(-127.188 19.9253 222.274)" fill="#1A1F36"/>
<rect x="19.9253" y="222.274" width="6.91449" height="13.829" rx="3.45724" transform="rotate(-127.188 19.9253 222.274)" fill="#1A1F36"/>
<rect x="-7.66772" y="197.345" width="6.91449" height="13.829" rx="3.45724" transform="rotate(-76.8931 -7.66772 197.345)" fill="#1A1F36"/>
<rect x="37.7461" y="242.136" width="6.91449" height="13.829" rx="3.45724" transform="rotate(3.9984 37.7461 242.136)" fill="#1A1F36"/>
<rect x="24.4297" y="286.289" width="6.91449" height="13.829" rx="3.45724" transform="rotate(142.812 24.4297 286.289)" fill="#1A1F36"/>
</g>
</g>
</g>
<defs>
<clipPath id="clip0_7005_1971">
<rect width="440" height="952.747" fill="white" transform="translate(0 2)"/>
</clipPath>
</defs>
</svg>
