<svg width="440" height="953" viewBox="0 0 440 953" fill="none" xmlns="http://www.w3.org/2000/svg">
<g clip-path="url(#clip0_7005_2030)">
<g clip-path="url(#clip1_7005_2030)">
<g opacity="0.1">
<path d="M63.5 686.25C59.5477 686.321 55.674 685.142 52.4313 682.881C50.5754 681.501 48.3127 680.777 46 680.825C43.6859 680.767 41.4199 681.491 39.5688 682.881C38.6063 683.45 37.6875 684.019 36.6375 684.544C35.3023 685.18 33.8277 685.467 32.3514 685.378C30.8752 685.29 29.4454 684.829 28.1958 684.038C26.9461 683.247 25.9172 682.152 25.2054 680.856C24.4935 679.56 24.1218 678.104 24.125 676.625V611.875C24.125 608.394 25.5078 605.056 27.9692 602.594C30.4307 600.133 33.7691 598.75 37.25 598.75H89.75C93.231 598.75 96.5694 600.133 99.0308 602.594C101.492 605.056 102.875 608.394 102.875 611.875V676.625C102.871 678.1 102.494 679.55 101.779 680.841C101.064 682.131 100.034 683.22 98.7858 684.006C97.5373 684.791 96.1104 685.249 94.6377 685.335C93.165 685.422 91.6944 685.134 90.3625 684.5C89.3669 684.022 88.4025 683.481 87.475 682.881C85.5681 681.494 83.2706 680.747 80.9125 680.747C78.5544 680.747 76.257 681.494 74.35 682.881C71.1695 685.101 67.3783 686.278 63.5 686.25ZM46 672.075C49.9523 672.004 53.826 673.183 57.0688 675.444C58.9757 676.831 61.2732 677.578 63.6313 677.578C65.9894 677.578 68.2868 676.831 70.1938 675.444C73.4605 673.251 77.306 672.079 81.2406 672.079C85.1753 672.079 89.0208 673.251 92.2875 675.444C92.9522 675.873 93.6385 676.267 94.3438 676.625V611.875C94.3438 610.715 93.8828 609.602 93.0624 608.781C92.2419 607.961 91.1291 607.5 89.9688 607.5H37.25C36.0897 607.5 34.9769 607.961 34.1564 608.781C33.336 609.602 32.875 610.715 32.875 611.875V676.625C33.5994 676.276 34.3009 675.882 34.975 675.444C38.2043 673.189 42.0622 672.011 46 672.075Z" fill="#1A5A40"/>
<path d="M63.5 660H46C44.8397 660 43.7269 659.539 42.9064 658.719C42.0859 657.898 41.625 656.785 41.625 655.625C41.625 654.465 42.0859 653.352 42.9064 652.531C43.7269 651.711 44.8397 651.25 46 651.25H63.5C64.6603 651.25 65.7731 651.711 66.5936 652.531C67.4141 653.352 67.875 654.465 67.875 655.625C67.875 656.785 67.4141 657.898 66.5936 658.719C65.7731 659.539 64.6603 660 63.5 660Z" fill="#1A5A40"/>
<path d="M81 642.5H46C44.8397 642.5 43.7269 642.039 42.9064 641.219C42.0859 640.398 41.625 639.285 41.625 638.125C41.625 636.965 42.0859 635.852 42.9064 635.031C43.7269 634.211 44.8397 633.75 46 633.75H81C82.1603 633.75 83.2731 634.211 84.0936 635.031C84.9141 635.852 85.375 636.965 85.375 638.125C85.375 639.285 84.9141 640.398 84.0936 641.219C83.2731 642.039 82.1603 642.5 81 642.5Z" fill="#1A5A40"/>
<path d="M81 625H46C44.8397 625 43.7269 624.539 42.9064 623.719C42.0859 622.898 41.625 621.785 41.625 620.625C41.625 619.465 42.0859 618.352 42.9064 617.531C43.7269 616.711 44.8397 616.25 46 616.25H81C82.1603 616.25 83.2731 616.711 84.0936 617.531C84.9141 618.352 85.375 619.465 85.375 620.625C85.375 621.785 84.9141 622.898 84.0936 623.719C83.2731 624.539 82.1603 625 81 625Z" fill="#1A5A40"/>
</g>
<g opacity="0.1">
<path d="M401 299.834C392.794 299.98 384.752 297.533 378.019 292.839C374.166 289.973 369.468 288.471 364.667 288.57C359.862 288.45 355.158 289.954 351.314 292.839C349.316 294.02 347.408 295.201 345.228 296.291C342.456 297.611 339.395 298.208 336.33 298.024C333.265 297.84 330.296 296.883 327.702 295.241C325.107 293.599 322.971 291.326 321.493 288.634C320.015 285.943 319.243 282.921 319.25 279.85V145.417C319.25 138.19 322.121 131.259 327.231 126.148C332.342 121.038 339.273 118.167 346.5 118.167H455.5C462.727 118.167 469.658 121.038 474.769 126.148C479.879 131.259 482.75 138.19 482.75 145.417V279.85C482.741 282.913 481.958 285.924 480.474 288.603C478.99 291.282 476.852 293.543 474.26 295.174C471.668 296.805 468.705 297.755 465.648 297.934C462.59 298.114 459.537 297.517 456.772 296.2C454.705 295.207 452.702 294.085 450.777 292.839C446.817 289.96 442.048 288.408 437.152 288.408C432.256 288.408 427.486 289.96 423.527 292.839C416.923 297.447 409.052 299.891 401 299.834ZM364.667 270.404C372.872 270.257 380.915 272.705 387.648 277.398C391.607 280.278 396.377 281.829 401.273 281.829C406.168 281.829 410.938 280.278 414.898 277.398C421.68 272.844 429.664 270.413 437.833 270.413C446.002 270.413 453.986 272.844 460.768 277.398C462.148 278.288 463.573 279.107 465.038 279.85V145.417C465.038 143.008 464.081 140.698 462.377 138.994C460.674 137.291 458.363 136.334 455.954 136.334H346.5C344.091 136.334 341.781 137.291 340.077 138.994C338.374 140.698 337.417 143.008 337.417 145.417V279.85C338.921 279.126 340.377 278.307 341.777 277.398C348.481 272.717 356.491 270.27 364.667 270.404Z" fill="#1A5A40"/>
<path d="M401 245.334H364.667C362.258 245.334 359.947 244.377 358.244 242.673C356.54 240.97 355.583 238.659 355.583 236.25C355.583 233.841 356.54 231.531 358.244 229.827C359.947 228.124 362.258 227.167 364.667 227.167H401C403.409 227.167 405.719 228.124 407.423 229.827C409.126 231.531 410.083 233.841 410.083 236.25C410.083 238.659 409.126 240.97 407.423 242.673C405.719 244.377 403.409 245.334 401 245.334Z" fill="#1A5A40"/>
<path d="M437.333 209H364.667C362.258 209 359.947 208.043 358.244 206.339C356.54 204.636 355.583 202.325 355.583 199.916C355.583 197.507 356.54 195.197 358.244 193.493C359.947 191.79 362.258 190.833 364.667 190.833H437.333C439.742 190.833 442.053 191.79 443.756 193.493C445.46 195.197 446.417 197.507 446.417 199.916C446.417 202.325 445.46 204.636 443.756 206.339C442.053 208.043 439.742 209 437.333 209Z" fill="#1A5A40"/>
<path d="M437.333 172.667H364.667C362.258 172.667 359.947 171.71 358.244 170.006C356.54 168.303 355.583 165.992 355.583 163.583C355.583 161.174 356.54 158.864 358.244 157.16C359.947 155.457 362.258 154.5 364.667 154.5H437.333C439.742 154.5 442.053 155.457 443.756 157.16C445.46 158.864 446.417 161.174 446.417 163.583C446.417 165.992 445.46 168.303 443.756 170.006C442.053 171.71 439.742 172.667 437.333 172.667Z" fill="#1A5A40"/>
</g>
</g>
</g>
<defs>
<clipPath id="clip0_7005_2030">
<rect width="440" height="953" fill="white"/>
</clipPath>
<clipPath id="clip1_7005_2030">
<rect width="440" height="953" fill="white"/>
</clipPath>
</defs>
</svg>
