<svg width="440" height="953" viewBox="0 0 440 953" fill="none" xmlns="http://www.w3.org/2000/svg">
<g clip-path="url(#clip0_7005_2030)">
<g clip-path="url(#clip1_7005_2030)">
<g opacity="0.1">
<path d="M7.49944 751.594C-22.4835 751.594 -46.886 727.192 -46.886 697.209C-46.886 667.226 -22.4835 642.823 7.49944 642.823C37.4824 642.823 61.8849 667.226 61.8849 697.209C61.8849 727.192 37.4824 751.594 7.49944 751.594ZM7.49944 657.011C-14.6331 657.011 -32.6985 675.076 -32.6985 697.209C-32.6985 719.341 -14.6331 737.407 7.49944 737.407C29.6319 737.407 47.6974 719.341 47.6974 697.209C47.6974 675.076 29.6319 657.011 7.49944 657.011Z" fill="#6B3010"/>
<path d="M88.748 846.177C84.8701 846.177 81.6542 842.961 81.6542 839.083C81.6542 806.452 48.3619 779.969 7.50186 779.969C-33.3586 779.969 -66.6519 806.452 -66.6519 839.083C-66.6519 842.961 -69.8677 846.177 -73.7456 846.177C-77.6235 846.177 -80.8394 842.961 -80.8394 839.083C-80.8394 798.696 -41.209 765.781 7.50186 765.781C56.2123 765.781 95.8417 798.696 95.8417 839.083C95.8417 842.961 92.6259 846.177 88.748 846.177Z" fill="#6B3010"/>
</g>
<g opacity="0.1">
<path d="M375.5 372.907C356.876 372.907 341.719 357.749 341.719 339.125C341.719 320.502 356.876 305.344 375.5 305.344C394.124 305.344 409.281 320.502 409.281 339.125C409.281 357.749 394.124 372.907 375.5 372.907ZM375.5 314.157C361.752 314.157 350.531 325.378 350.531 339.125C350.531 352.873 361.752 364.094 375.5 364.094C389.247 364.094 400.469 352.873 400.469 339.125C400.469 325.378 389.247 314.157 375.5 314.157Z" fill="#6B3010"/>
<path d="M425.967 431.656C423.558 431.656 421.561 429.659 421.561 427.25C421.561 406.981 400.881 390.531 375.501 390.531C350.121 390.531 329.441 406.981 329.441 427.25C329.441 429.659 327.443 431.656 325.035 431.656C322.626 431.656 320.628 429.659 320.628 427.25C320.628 402.164 345.245 381.719 375.501 381.719C405.757 381.719 430.373 402.164 430.373 427.25C430.373 429.659 428.376 431.656 425.967 431.656Z" fill="#6B3010"/>
</g>
</g>
</g>
<defs>
<clipPath id="clip0_7005_2030">
<rect width="440" height="953" fill="white"/>
</clipPath>
<clipPath id="clip1_7005_2030">
<rect width="440" height="953" fill="white"/>
</clipPath>
</defs>
</svg>
