<svg width="440" height="953" viewBox="0 0 440 953" fill="none" xmlns="http://www.w3.org/2000/svg">
<g clip-path="url(#clip0_7005_2030)">
<g opacity="0.1">
<path d="M418.17 325.563C443.894 325.563 464.748 304.703 464.748 278.972C464.748 253.241 443.894 232.381 418.17 232.381C392.445 232.381 371.591 253.241 371.591 278.972C371.591 304.703 392.445 325.563 418.17 325.563Z" stroke="#28427A" stroke-width="9.92434" stroke-linecap="round" stroke-linejoin="round"/>
<path d="M325.013 390.79H511.326" stroke="#28427A" stroke-width="9.92434" stroke-linecap="round" stroke-linejoin="round"/>
<path d="M371.592 409.426C381.881 409.426 390.223 401.083 390.223 390.79C390.223 380.498 381.881 372.154 371.592 372.154C361.302 372.154 352.96 380.498 352.96 390.79C352.96 401.083 361.302 409.426 371.592 409.426Z" fill="#F0F3F8" stroke="#28427A" stroke-width="9.92434"/>
</g>
<g opacity="0.1">
<path d="M110.382 746.526C110.382 768.727 128.374 786.724 150.568 786.724C172.763 786.724 190.755 768.727 190.755 746.526C190.755 724.326 172.763 706.329 150.568 706.329C128.374 706.329 110.382 724.326 110.382 746.526Z" stroke="#28427A" stroke-width="8.5625" stroke-linecap="round" stroke-linejoin="round"/>
<path d="M54.1204 666.131L54.1204 826.921" stroke="#28427A" stroke-width="8.5625" stroke-linecap="round" stroke-linejoin="round"/>
<path d="M38.0455 706.329C38.0455 715.209 45.2424 722.408 54.1202 722.408C62.998 722.408 70.1948 715.209 70.1948 706.329C70.1948 697.449 62.998 690.25 54.1202 690.25C45.2424 690.25 38.0455 697.449 38.0455 706.329Z" fill="#F0F3F8" stroke="#28427A" stroke-width="8.5625"/>
<path d="M38.0455 786.724C38.0455 795.604 45.2424 802.803 54.1202 802.803C62.998 802.803 70.1948 795.604 70.1948 786.724C70.1948 777.844 62.998 770.645 54.1202 770.645C45.2424 770.645 38.0455 777.844 38.0455 786.724Z" fill="#F0F3F8" stroke="#28427A" stroke-width="8.5625"/>
</g>
</g>
<defs>
<clipPath id="clip0_7005_2030">
<rect width="440" height="953" fill="white"/>
</clipPath>
</defs>
</svg>
